<svg width="126" height="104" viewBox="0 0 126 104" fill="none" xmlns="http://www.w3.org/2000/svg">
<path d="M13.7686 96.7646C12.5264 97.4209 10.9795 97.749 9.12793 97.749C6.7373 97.749 4.82324 96.9795 3.38574 95.4404C1.94824 93.9014 1.22949 91.8818 1.22949 89.3818C1.22949 86.6943 2.03809 84.5225 3.65527 82.8662C5.27246 81.21 7.32324 80.3818 9.80762 80.3818C11.4014 80.3818 12.7217 80.6123 13.7686 81.0732V83.1709C12.5654 82.499 11.2373 82.1631 9.78418 82.1631C7.85449 82.1631 6.28809 82.8076 5.08496 84.0967C3.88965 85.3857 3.29199 87.1084 3.29199 89.2646C3.29199 91.3115 3.85059 92.9443 4.96777 94.1631C6.09277 95.374 7.56543 95.9795 9.38574 95.9795C11.0732 95.9795 12.5342 95.6045 13.7686 94.8545V96.7646ZM23.1904 87.4131C22.8545 87.1553 22.3701 87.0264 21.7373 87.0264C20.917 87.0264 20.2295 87.4131 19.6748 88.1865C19.1279 88.96 18.8545 90.0146 18.8545 91.3506V97.4678H16.9326V85.4678H18.8545V87.9404H18.9014C19.1748 87.0967 19.5928 86.4404 20.1553 85.9717C20.7178 85.4951 21.3467 85.2568 22.042 85.2568C22.542 85.2568 22.9248 85.3115 23.1904 85.4209V87.4131ZM34.9209 91.9482H26.4482C26.4795 93.2842 26.8389 94.3154 27.5264 95.042C28.2139 95.7686 29.1592 96.1318 30.3623 96.1318C31.7139 96.1318 32.9561 95.6865 34.0889 94.7959V96.6006C33.0342 97.3662 31.6396 97.749 29.9053 97.749C28.21 97.749 26.8779 97.2061 25.9092 96.1201C24.9404 95.0264 24.4561 93.4912 24.4561 91.5146C24.4561 89.6475 24.9834 88.1279 26.0381 86.9561C27.1006 85.7764 28.417 85.1865 29.9873 85.1865C31.5576 85.1865 32.7725 85.6943 33.6318 86.71C34.4912 87.7256 34.9209 89.1357 34.9209 90.9404V91.9482ZM32.9521 90.3193C32.9443 89.21 32.6748 88.3467 32.1436 87.7295C31.6201 87.1123 30.8896 86.8037 29.9521 86.8037C29.0459 86.8037 28.2764 87.1279 27.6436 87.7764C27.0107 88.4248 26.6201 89.2725 26.4717 90.3193H32.9521ZM48.0811 97.4678H46.1592V95.4287H46.1123C45.2217 96.9756 43.8467 97.749 41.9873 97.749C40.4795 97.749 39.2725 97.2139 38.3662 96.1436C37.4678 95.0654 37.0186 93.6006 37.0186 91.749C37.0186 89.7646 37.5186 88.1748 38.5186 86.9795C39.5186 85.7842 40.8506 85.1865 42.5146 85.1865C44.1631 85.1865 45.3623 85.835 46.1123 87.1318H46.1592V79.7021H48.0811V97.4678ZM46.1592 92.042V90.2725C46.1592 89.3037 45.8389 88.4834 45.1982 87.8115C44.5576 87.1396 43.7451 86.8037 42.7607 86.8037C41.5889 86.8037 40.667 87.2334 39.9951 88.0928C39.3232 88.9521 38.9873 90.1396 38.9873 91.6553C38.9873 93.0381 39.3076 94.1318 39.9482 94.9365C40.5967 95.7334 41.4639 96.1318 42.5498 96.1318C43.6201 96.1318 44.4873 95.7451 45.1514 94.9717C45.8232 94.1982 46.1592 93.2217 46.1592 92.042ZM56.9873 97.749C55.2139 97.749 53.7959 97.1904 52.7334 96.0732C51.6787 94.9482 51.1514 93.46 51.1514 91.6084C51.1514 89.5928 51.7021 88.0186 52.8037 86.8857C53.9053 85.7529 55.3936 85.1865 57.2686 85.1865C59.0576 85.1865 60.4521 85.7373 61.4521 86.8389C62.46 87.9404 62.9639 89.4678 62.9639 91.4209C62.9639 93.335 62.4209 94.8701 61.335 96.0264C60.2568 97.1748 58.8076 97.749 56.9873 97.749ZM57.1279 86.8037C55.8936 86.8037 54.917 87.2256 54.1982 88.0693C53.4795 88.9053 53.1201 90.0615 53.1201 91.5381C53.1201 92.96 53.4834 94.0811 54.21 94.9014C54.9365 95.7217 55.9092 96.1318 57.1279 96.1318C58.3701 96.1318 59.3232 95.7295 59.9873 94.9248C60.6592 94.1201 60.9951 92.9756 60.9951 91.4912C60.9951 89.9912 60.6592 88.835 59.9873 88.0225C59.3232 87.21 58.3701 86.8037 57.1279 86.8037ZM77.7295 96.7646C76.4873 97.4209 74.9404 97.749 73.0889 97.749C70.6982 97.749 68.7842 96.9795 67.3467 95.4404C65.9092 93.9014 65.1904 91.8818 65.1904 89.3818C65.1904 86.6943 65.999 84.5225 67.6162 82.8662C69.2334 81.21 71.2842 80.3818 73.7686 80.3818C75.3623 80.3818 76.6826 80.6123 77.7295 81.0732V83.1709C76.5264 82.499 75.1982 82.1631 73.7451 82.1631C71.8154 82.1631 70.249 82.8076 69.0459 84.0967C67.8506 85.3857 67.2529 87.1084 67.2529 89.2646C67.2529 91.3115 67.8115 92.9443 68.9287 94.1631C70.0537 95.374 71.5264 95.9795 73.3467 95.9795C75.0342 95.9795 76.4951 95.6045 77.7295 94.8545V96.7646ZM90.8545 97.4678H88.9326V90.5537C88.9326 88.0537 88.0029 86.8037 86.1436 86.8037C85.2061 86.8037 84.417 87.167 83.7764 87.8936C83.1357 88.6123 82.8154 89.5381 82.8154 90.6709V97.4678H80.8936V79.7021H82.8154V87.46H82.8623C83.7842 85.9443 85.0967 85.1865 86.7998 85.1865C89.5029 85.1865 90.8545 86.8154 90.8545 90.0732V97.4678ZM103.077 97.4678H101.155V95.5928H101.108C100.272 97.0303 99.042 97.749 97.417 97.749C96.2217 97.749 95.2842 97.4326 94.6045 96.7998C93.9326 96.167 93.5967 95.3271 93.5967 94.2803C93.5967 92.0381 94.917 90.7334 97.5576 90.3662L101.155 89.8623C101.155 87.8232 100.331 86.8037 98.6826 86.8037C97.2373 86.8037 95.9326 87.2959 94.7686 88.2803V86.3115C95.9482 85.5615 97.3076 85.1865 98.8467 85.1865C101.667 85.1865 103.077 86.6787 103.077 89.6631V97.4678ZM101.155 91.3975L98.2607 91.7959C97.3701 91.9209 96.6982 92.1436 96.2451 92.4639C95.792 92.7764 95.5654 93.335 95.5654 94.1396C95.5654 94.7256 95.7725 95.2061 96.1865 95.5811C96.6084 95.9482 97.167 96.1318 97.8623 96.1318C98.8154 96.1318 99.6006 95.7998 100.218 95.1357C100.843 94.4639 101.155 93.6162 101.155 92.5928V91.3975ZM107.683 82.4209C107.339 82.4209 107.046 82.3037 106.804 82.0693C106.562 81.835 106.44 81.5381 106.44 81.1787C106.44 80.8193 106.562 80.5225 106.804 80.2881C107.046 80.0459 107.339 79.9248 107.683 79.9248C108.034 79.9248 108.331 80.0459 108.573 80.2881C108.823 80.5225 108.948 80.8193 108.948 81.1787C108.948 81.5225 108.823 81.8154 108.573 82.0576C108.331 82.2998 108.034 82.4209 107.683 82.4209ZM108.62 97.4678H106.698V85.4678H108.62V97.4678ZM122.472 97.4678H120.55V90.624C120.55 88.0771 119.62 86.8037 117.761 86.8037C116.8 86.8037 116.003 87.167 115.37 87.8936C114.745 88.6123 114.433 89.5225 114.433 90.624V97.4678H112.511V85.4678H114.433V87.46H114.479C115.386 85.9443 116.698 85.1865 118.417 85.1865C119.729 85.1865 120.733 85.6123 121.429 86.4639C122.124 87.3076 122.472 88.5303 122.472 90.1318V97.4678Z" fill="#001061"/>
<path d="M14.7019 28.2079C15.5439 32.1619 18.5339 40.3989 22.2629 40.3989C25.9919 40.3989 26.8059 38.6449 26.8059 38.6449C26.8059 38.6449 27.3699 33.3449 29.6719 31.0449C33.9079 27.5959 38.9629 31.6689 38.9629 31.6689C38.9629 31.6689 33.3359 30.3559 32.7989 31.3619C31.4579 33.8749 36.7519 34.5899 36.1499 37.5789C35.5499 40.5469 31.3589 42.3789 31.3589 42.3789C29.0502 43.4514 26.5269 43.9819 23.9819 43.9299C20.2339 44.1579 18.2359 49.4859 18.2359 49.4859L27.0789 51.4389C27.0597 50.0464 27.2481 48.6588 27.6379 47.3219C28.1969 46.1089 30.3059 48.6359 41.3169 46.5519C52.3279 44.4679 58.7029 32.4999 58.7029 32.4999C58.7029 32.4999 59.7809 34.5179 56.4029 40.3999C57.9699 42.1099 60.2129 40.8299 62.5789 40.8299C69.2109 40.8299 71.1459 45.7029 72.6789 45.5029C69.1369 33.7129 71.8879 31.6679 71.8879 31.6679C71.8879 31.6679 71.3729 35.2679 75.4209 44.3239C79.4688 53.3799 100.001 55.1599 103.469 62.0919C106.937 69.0239 106.943 71.9769 106.943 71.9769L103.043 76.2339H112.359V67.6529C111.53 62.5139 107.284 54.0079 107.284 54.0079L106.197 48.5289L99.1349 44.7159C99.1349 44.7159 102.161 37.9289 101.647 32.7439C97.7039 22.5369 87.7549 24.1569 81.6469 21.8659C75.3859 19.5179 72.6829 16.5939 72.6829 16.5939C72.6829 16.5939 63.9719 9.16188 59.1889 5.52588C54.3029 1.84588 48.4969 -2.02212 37.2619 1.20788C33.1389 2.39388 28.7949 4.96588 24.6109 7.98988C23.0979 9.08388 19.9449 11.9309 19.9449 11.9309L23.9819 15.3679C23.9819 15.3679 11.9609 11.4799 5.30086 19.9239C4.24583 21.7945 3.63862 23.8842 3.52686 26.0289C3.52686 26.0289 5.95586 23.2489 7.74386 22.5369C8.87286 22.0019 14.7019 18.2649 13.4439 21.8659C12.2049 26.6849 14.2219 25.9529 14.7019 28.2079Z" fill="#001061"/>
<path d="M7.70703 13.8249C10.4149 13.4834 13.1001 12.9805 15.748 12.3189C18.598 11.4789 18.9 9.50691 18.9 9.50691C18.9 9.50691 15.068 8.76791 12.184 10.1239C10.4145 10.9775 8.87824 12.2475 7.70703 13.8249Z" fill="#001061"/>
<path d="M29.2508 59.7478L36.8868 59.6158C36.8602 58.4891 36.8999 57.3618 37.0058 56.2398C37.2518 55.4193 37.8107 54.7286 38.5618 54.3168C40.799 53.472 42.9587 52.4347 45.0168 51.2168C47.4993 49.6816 49.8551 47.9504 52.0618 46.0398C52.0618 46.0398 45.9618 48.2308 43.3698 49.0148C41.6698 49.5278 39.5368 49.7748 38.2328 50.3058C36.9835 50.7497 35.7635 51.2717 34.5798 51.8688C32.9568 52.7688 30.2558 54.7108 30.2558 54.7108C29.7931 55.5414 29.4177 56.4178 29.1358 57.3258C29.0564 58.1344 29.0951 58.9503 29.2508 59.7478Z" fill="#001061"/>
<path d="M66.9536 71.5219H76.0906V67.0949L92.7536 62.6669L94.1776 57.3319L83.7156 53.7319L83.1796 58.0169C82.288 58.7407 81.4946 59.5778 80.8196 60.5069C79.3956 61.2569 73.8196 63.1329 71.0826 64.8439C68.3456 66.5549 66.9536 71.5219 66.9536 71.5219Z" fill="#001061"/>
<path d="M100.588 36.287C100.588 36.287 112.404 43.555 114.835 26.387" stroke="#001061" stroke-width="3" stroke-miterlimit="10"/>
<path d="M116.401 19.2378L117.791 27.2758L111.483 26.0868L116.401 19.2378Z" fill="#001061"/>
</svg>
